# xmcd
#
# Track frame offsets: 
#        150
#        21307
#        42372
#        60300
#        78520
#        99360
#        118437
#        145020
#        158395
#        180002
#        195932
#        214617
#        241342
#
# Disc length: 3357 seconds
#
# Revision: 12
# Processed by: cddbd v1.5.2PL0 Copyright (c) Steve Scherf et al.
# Submitted via: ExactAudioCopy v1.1
#
DISCID=9a0d1b0d
DTITLE=John Hammond - Wicked Grin
DYEAR=2001
DGENRE=Blues
TTITLE0=2:19
TTITLE1=Heartattack And Vine
TTITLE2=Clap Hands
TTITLE3='Til The Money Runs Out
TTITLE4=16 Shells From A Thirty-Ought Six
TTITLE5=Buzz Fledderjohn
TTITLE6=Get Behind The Mule
TTITLE7=Shore Leave
TTITLE8=Fannin Street
TTITLE9=Jockey Full Of Bourbon
TTITLE10=Big Black Mariah
TTITLE11=Murder In The Red Barn
TTITLE12=I Know I've Been Changed
EXTD=
EXTT0=
EXTT1=
EXTT2=
EXTT3=
EXTT4=
EXTT5=
EXTT6=
EXTT7=
EXTT8=
EXTT9=
EXTT10=
EXTT11=
EXTT12=
PLAYORDER=
